<?xml version="1.0" encoding="UTF-8"?>
<svg width="512" height="512" viewBox="0 0 512 512" fill="none" xmlns="http://www.w3.org/2000/svg">
  <defs>
    <linearGradient id="bg" x1="0" y1="0" x2="512" y2="512" gradientUnits="userSpaceOnUse">
      <stop offset="0" stop-color="#0C1210"/>
      <stop offset="1" stop-color="#0F1F1B"/>
    </linearGradient>
    <linearGradient id="sGrad" x1="100" y1="40" x2="420" y2="480" gradientUnits="userSpaceOnUse">
      <stop offset="0" stop-color="#5EEAD4"/>
      <stop offset="0.5" stop-color="#0D9488"/>
      <stop offset="1" stop-color="#134E4A"/>
    </linearGradient>
    <linearGradient id="leafG" x1="200" y1="290" x2="320" y2="360" gradientUnits="userSpaceOnUse">
      <stop offset="0" stop-color="#5EEAD4"/>
      <stop offset="1" stop-color="#0F766E"/>
    </linearGradient>
    <linearGradient id="seedG" x1="225" y1="370" x2="295" y2="430" gradientUnits="userSpaceOnUse">
      <stop offset="0" stop-color="#FCD34D"/>
      <stop offset="0.6" stop-color="#F59E0B"/>
      <stop offset="1" stop-color="#B45309"/>
    </linearGradient>
    <pattern id="diamonds" x="0" y="0" width="48" height="48" patternUnits="userSpaceOnUse">
      <polygon points="24,4 44,24 24,44 4,24" fill="none" stroke="#5EEAD4" stroke-width="0.5" opacity="0.08"/>
    </pattern>
  </defs>

  <!-- Background -->
  <rect width="512" height="512" rx="96" fill="url(#bg)"/>
  <rect width="512" height="512" rx="96" fill="url(#diamonds)"/>
  <rect x="2" y="2" width="508" height="508" rx="94" fill="none" stroke="#14B8A6" stroke-width="1.5" opacity="0.1"/>

  <!-- S -->
  <path d="
    M 340 100
    C 314 68, 272 54, 232 62
    C 186 72, 160 104, 166 142
    C 172 176, 204 198, 256 214
    L 276 220
    C 348 242, 400 278, 396 344
    C 392 406, 340 448, 264 454
    C 198 458, 142 428, 112 384
  "
  fill="none"
  stroke="url(#sGrad)"
  stroke-width="72"
  stroke-linecap="square"
  stroke-linejoin="miter"
  />

  <!-- Leaf -->
  <path d="M 256 300 L 192 262 C 184 284, 206 314, 248 312 Z" fill="url(#leafG)"/>

  <!-- Stem -->
  <line x1="256" y1="314" x2="256" y2="344" stroke="#0F766E" stroke-width="4" stroke-linecap="square"/>

  <!-- Seed -->
  <ellipse cx="256" cy="372" rx="42" ry="30" fill="url(#seedG)"/>
  <ellipse cx="248" cy="364" rx="15" ry="10" fill="#FDE68A" opacity="0.35"/>
</svg>
